PathFileType	4	(X/Y/Z)	D:\TRACE\v60_Jaco2_6-2-23\JustBodyDRS_Motion2_6-platform.trc
DataRate	CameraRate	NumFrames	NumMarkers	Units	OrigDataRate	OrigDataStartFrame	OrigNumFrames
100.00	100.00	      60	5	mm	100.00	4214	      6741
Frame#	Time	Left_Front			Right_Front			Left_Aft			Right_Aft			Post			
		X1	Y1	Z1	X2	Y2	Z2	X3	Y3	Z3	X4	Y4	Z4	X5	Y5	Z5	

4214	42.130	-773.22577	7.92973	-639.27271	796.89716	9.52201	-644.42542	-681.46014	8.16714	495.91025	761.01288	7.67524	505.37628	12.45211	1306.84412	-963.29602	
4215	42.140	-772.41669	9.10666	-639.08466	797.54791	10.92709	-644.22485	-680.53046	7.15205	496.10675	762.00806	6.63378	505.75665	13.28415	1308.89172	-959.43402	
4216	42.150	-771.46228	10.68783	-638.73175	798.74316	12.15270	-643.72913	-679.44000	6.09239	496.47888	762.93152	5.59387	506.18402	14.68764	1310.96704	-956.21240	
4217	42.160	-770.26825	12.33900	-638.38647	799.53937	13.61006	-643.54248	-678.67419	5.33729	496.61819	763.68408	4.39614	506.46414	16.28551	1313.20874	-953.24200	
4218	42.170	-769.23456	13.72600	-637.92670	800.57214	15.29608	-643.23663	-677.52081	4.28501	497.11334	765.09900	3.57967	507.12750	16.92684	1315.39600	-950.51776	
4219	42.180	-768.26007	15.55235	-637.57745	801.59961	16.85957	-642.82782	-676.36633	3.04360	497.65289	766.66656	2.93733	508.27328	17.79521	1317.62598	-948.11005	
4220	42.190	-767.50146	16.87639	-637.43372	802.87299	18.49513	-642.11749	-675.59845	2.11747	497.89484	766.82910	1.05289	507.07126	18.36371	1320.08057	-945.70941	
4221	42.200	-766.62366	18.33678	-636.61664	803.53485	19.83113	-641.72028	-674.53259	0.76428	498.35300	767.71478	-0.15782	507.35385	20.06719	1322.33679	-942.70221	
4222	42.210	-765.44415	20.19633	-636.50928	804.49847	21.44791	-641.54797	-673.69318	-0.15946	498.59109	768.12512	-1.61089	507.62115	21.31903	1324.66724	-939.78870	
4223	42.220	-764.44958	21.70108	-636.05365	805.59509	23.29765	-641.16022	-672.74567	-1.24198	498.99918	769.60846	-2.59059	508.08832	22.06738	1327.20789	-936.93268	
4224	42.230	-763.51520	23.57213	-635.74207	806.61035	24.88063	-640.62000	-671.76556	-2.55468	499.33096	770.41028	-3.84727	508.38474	22.81023	1329.43799	-933.29565	
4225	42.240	-762.92773	25.12225	-635.17041	807.19183	26.37681	-640.19098	-670.96808	-3.50587	499.60147	771.53448	-4.72404	509.77036	23.64325	1331.82776	-929.48993	
4226	42.250	-762.14417	26.38462	-634.53735	808.15308	28.03436	-639.85181	-670.10938	-4.81642	500.06702	773.54510	-5.39360	510.54654	24.41953	1333.82886	-925.75769	
4227	42.260	-761.35352	28.19659	-634.27399	809.03906	29.54583	-639.34912	-669.45142	-5.63625	500.31476	774.19897	-6.20863	511.23773	25.28935	1336.00513	-921.58606	
4228	42.270	-760.20990	29.48005	-633.92145	809.81500	30.77892	-639.09869	-668.23560	-6.85831	500.61441	773.38904	-8.33716	509.60538	25.94487	1338.01477	-917.17474	
4229	42.280	-759.25385	30.70906	-633.42340	810.48230	32.35714	-638.76038	-667.34320	-7.97717	501.16650	774.75836	-9.22134	509.96075	26.64582	1340.03027	-912.53265	
4230	42.290	-758.62018	32.48307	-633.45337	811.40039	33.97593	-638.27698	-666.75470	-8.84123	501.29758	775.40045	-10.24310	510.27649	27.45037	1342.12183	-908.38849	
4231	42.300	-757.87152	33.89838	-632.80280	812.10559	35.23320	-637.83905	-666.06647	-9.81380	501.59875	775.24359	-11.76799	511.04959	28.28347	1343.96106	-904.62952	
4232	42.310	-757.13690	35.10095	-632.23059	812.85400	36.63381	-637.48041	-665.22876	-10.94775	501.90546	776.42218	-12.39070	511.83032	28.92678	1345.98792	-900.90454	
4233	42.320	-756.63269	36.53541	-631.99207	813.42590	38.10822	-637.12286	-664.78156	-11.84682	502.10815	777.73566	-13.23183	511.34650	29.71627	1347.82813	-898.22559	
4234	42.330	-755.86682	38.03608	-631.61456	814.31812	39.26719	-636.89746	-664.00134	-12.95366	502.36679	778.05823	-14.18563	511.48950	30.23544	1349.99231	-896.16187	
4235	42.340	-755.36646	39.36925	-631.23029	814.87207	40.79484	-636.35175	-663.40253	-13.91945	502.67984	777.76251	-15.93251	511.94974	31.19792	1351.86743	-894.26624	
4236	42.350	-754.79077	41.07717	-630.98505	815.56677	42.22211	-635.88641	-662.53857	-14.87176	503.08444	779.45416	-16.62716	512.26520	31.75467	1353.99109	-892.07642	
4237	42.360	-754.08411	42.28248	-630.39105	816.03070	43.50511	-635.49902	-662.51642	-15.14721	502.87927	780.10364	-17.42931	512.25171	32.62866	1355.93823	-889.68866	
4238	42.370	-753.47888	43.42153	-629.86469	816.55737	45.04649	-635.06433	-661.73779	-16.44384	503.35986	780.70667	-18.54312	513.19257	33.65356	1357.78992	-887.02087	
4239	42.380	-752.76129	45.07213	-629.65051	817.27728	46.36571	-634.53687	-661.10229	-17.56189	503.74490	781.09503	-19.57485	513.50574	34.25845	1359.64014	-884.23383	
4240	42.390	-752.20044	46.45301	-629.26886	817.68658	47.60892	-634.41071	-660.49841	-18.61349	504.17288	781.35071	-20.17497	513.68799	34.55424	1361.32373	-880.99969	
4241	42.400	-751.77228	47.54751	-628.85657	818.29071	48.98454	-633.81433	-659.97546	-19.41228	504.32773	782.21252	-21.21042	513.73755	34.74419	1363.02185	-877.84235	
4242	42.410	-751.46173	48.96121	-628.65076	818.53198	49.86607	-633.69086	-659.43030	-20.53638	504.52652	782.47052	-22.29397	514.04437	35.11760	1364.72961	-874.11517	
4243	42.420	-751.36993	49.80219	-628.24713	818.89111	51.15752	-633.28082	-659.25055	-21.13997	504.73178	782.84363	-23.00028	514.34302	35.72813	1366.34644	-870.07581	
4244	42.430	-750.82709	51.10422	-627.85828	818.88574	52.17682	-632.98132	-659.51727	-21.64558	505.05508	783.03375	-23.62064	514.56165	35.57526	1367.57349	-865.90564	
4245	42.440	-750.52521	52.59191	-627.58881	819.42615	53.72460	-632.48108	-658.58789	-23.05823	505.25061	783.64502	-24.77380	515.11108	35.68113	1369.33191	-862.91077	
4246	42.450	-750.31427	53.78036	-626.99286	819.61670	54.50170	-632.18048	-658.72675	-23.58693	505.53918	784.05902	-25.44917	515.45190	35.87425	1371.16663	-859.82953	
4247	42.460	-750.29443	54.36530	-626.59747	820.00983	55.56785	-631.56842	-658.46143	-24.53403	505.81104	784.46539	-25.86836	516.33197	36.12696	1372.88086	-857.16772	
4248	42.470	-750.04419	55.34159	-626.20728	820.00867	56.81110	-631.50507	-658.14948	-25.52211	506.07678	783.39453	-28.73165	514.85046	36.44765	1374.30457	-854.82959	
4249	42.480	-749.89282	56.61148	-625.98615	820.10449	57.90290	-630.96783	-658.16577	-26.15510	506.28442	784.04083	-28.32475	516.16016	36.59353	1375.56665	-852.61066	
4250	42.490	-749.71808	58.01793	-625.67303	820.18213	58.76178	-630.67261	-658.13806	-27.02961	506.54208	784.11481	-28.99062	516.43054	36.76170	1376.99341	-850.70648	
4251	42.500	-749.76062	58.85938	-625.31647	820.09662	59.79834	-630.48383	-658.02905	-27.60537	506.68494	784.35876	-29.61842	516.46741	36.28810	1378.31799	-849.21259	
4252	42.510	-749.78027	59.40902	-624.98639	820.29034	60.69433	-629.96558	-658.06757	-28.08425	506.66577	784.26428	-30.24995	516.45483	36.96044	1379.58167	-847.42670	
4253	42.520	-749.94519	60.10553	-624.50037	820.03723	61.47652	-629.83118	-658.12421	-28.69969	506.76868	784.13000	-30.91914	516.55176	36.72870	1380.39600	-845.58887	
4254	42.530	-750.04938	61.07003	-624.57532	820.12775	62.27466	-629.71326	-658.15033	-29.52007	507.01370	784.04688	-31.81219	516.48450	36.80127	1381.37378	-843.64496	
4255	42.540	-750.14020	62.17346	-624.24652	820.03534	62.96759	-629.34509	-658.21704	-30.07169	507.17847	783.80298	-32.30046	517.61981	36.93465	1382.41907	-841.60083	
4256	42.550	-750.23840	62.99454	-623.84509	819.68195	63.68565	-629.03571	-658.41351	-30.56573	507.24844	783.61584	-32.56699	517.91486	36.13871	1383.66589	-840.29584	
4257	42.560	-750.69476	63.90860	-623.75568	819.25757	64.63171	-628.79010	-658.70947	-31.08845	507.39325	783.66870	-33.29089	517.50134	36.03487	1385.16040	-838.36902	
4258	42.570	-750.99194	64.49519	-623.45123	819.18939	65.68752	-628.40857	-658.75067	-31.44204	507.55933	783.36517	-33.91775	517.47070	35.66864	1385.96191	-836.56177	
4259	42.580	-751.30560	65.34815	-623.33746	818.82434	66.30754	-628.21161	-659.45087	-32.47385	507.79962	783.05054	-34.68172	517.60486	35.60403	1386.79370	-834.37561	
4260	42.590	-751.51276	66.05874	-623.21356	818.50262	66.74625	-628.13013	-659.52527	-33.09117	508.09445	782.70313	-35.25078	517.64575	35.12389	1387.65112	-832.38055	
4261	42.600	-751.77521	66.63115	-622.89807	818.16083	67.27560	-627.91205	-659.80298	-33.28554	508.11185	781.99121	-35.27585	518.22858	34.80296	1388.43481	-830.02417	
4262	42.610	-752.17102	67.32261	-622.24573	818.09662	68.03388	-627.54388	-660.04523	-33.64813	508.14584	781.24115	-35.22215	518.90265	34.63759	1389.50073	-828.58612	
4263	42.620	-752.48267	67.66096	-621.94598	817.72668	68.73640	-627.29364	-660.54572	-34.08862	508.22467	780.96521	-35.75758	518.86823	34.31392	1390.10071	-826.78278	
4264	42.630	-752.97815	68.19853	-621.94507	817.34381	69.28785	-627.18048	-660.75513	-34.37965	508.21710	781.22034	-36.97148	518.09546	33.90096	1390.82471	-825.69177	
4265	42.640	-753.22302	68.60180	-621.77771	816.69366	69.78838	-627.10266	-661.28473	-34.90482	508.21964	780.85248	-37.43649	518.20245	33.05079	1391.35205	-824.83185	
4266	42.650	-753.54840	68.98891	-621.71460	816.35364	70.09525	-626.93878	-661.81683	-35.35986	508.41251	780.34241	-37.78457	517.49463	32.53359	1391.89941	-824.24774	
4267	42.660	-754.16101	69.79974	-621.80151	815.68286	70.45686	-626.80652	-662.34985	-35.55089	508.59805	779.59576	-37.63525	518.16528	32.50373	1392.41443	-824.02844	
4268	42.670	-754.74255	70.27671	-621.71875	815.28204	70.78666	-626.70129	-662.88867	-35.64461	508.61185	779.00183	-37.65410	518.98877	32.08694	1393.03064	-823.73242	
4269	42.680	-755.55835	70.84328	-621.61627	814.75824	71.16948	-626.65479	-663.43243	-35.85646	508.60312	778.85553	-38.43967	518.49805	31.65047	1393.49609	-823.34161	
4270	42.690	-755.81165	70.83607	-621.35938	814.28925	71.39774	-626.56635	-663.88593	-36.22898	508.76767	778.51337	-38.99799	518.54126	30.86777	1393.81982	-822.80487	
4271	42.700	-756.13568	70.94695	-621.14380	813.82977	71.59143	-626.39063	-664.19305	-36.54089	508.84402	777.99683	-39.22478	518.53259	30.42488	1394.00232	-821.75525	
4272	42.710	-756.65088	71.31138	-621.11615	813.21924	71.82378	-626.29828	-664.76550	-36.85395	508.82831	777.18750	-39.54608	517.65643	30.10602	1394.62451	-820.93475	
4273	42.720	-757.21283	71.71488	-621.10345	812.67773	72.13877	-626.12738	-665.34137	-36.96642	508.85135	776.24323	-38.81580	519.28229	29.47017	1395.07397	-819.58661	
